<svg width="109" height="24" viewBox="0 0 109 24" fill="none" xmlns="http://www.w3.org/2000/svg">
<path d="M96.9898 0H98.5077L108.857 24H106.994L103.579 16.0901L103.096 14.6704L97.7488 2.09578L92.2981 14.6704L91.8841 16.0901L88.4688 24H86.5714L96.9898 0Z" fill="#353535"/>
<path d="M66.1428 0L75.4285 21.8366L84.7142 0H86.5714L76.2883 24H74.6031L64.2857 0H66.1428Z" fill="#353535"/>
<path d="M52.4184 0H53.9363L64.2857 24H62.4228L59.0075 16.0901L58.5245 14.6704L53.1773 2.09578L47.7266 14.6704L47.3127 16.0901L43.8974 24H42L52.4184 0Z" fill="#353535"/>
<path d="M34.942 0.642253C34.1161 0.214084 33.1897 0 32.1629 0H22.2857V1.55493H23.9933H32.096C33.0781 1.55493 33.9598 1.83662 34.7411 2.4C35.5446 2.94085 36.1808 3.66197 36.6495 4.56338C37.1406 5.44225 37.3862 6.4 37.3862 7.43662C37.3862 8.4507 37.1741 9.40845 36.75 10.3099C36.3482 11.2113 35.7679 11.9437 35.0089 12.507C34.25 13.0704 33.3571 13.3521 32.3304 13.3521H23.9933H22.2857V24H23.9933V14.9408H31.6942L37.4531 24H39.4286L33.5022 14.6704C34.6183 14.5127 35.5893 14.0845 36.4152 13.3859C37.2634 12.6873 37.9219 11.8197 38.3906 10.7831C38.8594 9.74648 39.0937 8.63099 39.0937 7.43662C39.0937 6.51268 38.9152 5.61127 38.558 4.73239C38.2232 3.85352 37.7433 3.06479 37.1183 2.3662C36.5156 1.64507 35.7902 1.07042 34.942 0.642253Z" fill="#24A59E"/>
<path d="M19.7143 1.55493H10.7375V24H8.97673V1.55493H0V0H19.7143V1.55493Z" fill="#353535"/>
</svg>
